<?xml version="1.0" standalone="no"?>
 <!DOCTYPE svg PUBLIC "-//W3C//DTD SVG 1.1//EN" 
 "http://www.w3.org/Graphics/SVG/1.1/DTD/svg11.dtd"> 
<svg xmlns="http://www.w3.org/2000/svg" version="1.1" 
    width="29.7002cm" height="21.0007cm" viewBox="0 0 116930 82680 ">
<title>SVG Picture created as mc_amplifier.svg date 2016/03/05 09:10:08 </title>
  <desc>Picture generated by Eeschema-SVG </desc>
<g style="fill:#000000; fill-opacity:1;stroke:#000000; stroke-opacity:1;
stroke-linecap:round; stroke-linejoin:round; "
 transform="translate(0 0) scale(1 1)">
</g>
<g style="fill:#000000; fill-opacity:0.0; 
stroke:#000000; stroke-width:60; stroke-opacity:1; 
stroke-linecap:round; stroke-linejoin:round;">
<path d="M54000 31000
L57500 31000
" />
<path d="M56130 30300
L56070 30270
L55980 30270
L55900 30300
L55840 30360
L55810 30410
L55780 30530
L55780 30610
L55810 30730
L55840 30790
L55900 30840
L55980 30870
L56040 30870
L56130 30840
L56160 30810
L56160 30610
L56040 30610
" />
<path d="M56410 30870
L56410 30270
L56760 30870
L56760 30270
" />
<path d="M57040 30870
L57040 30270
L57190 30270
L57270 30300
L57330 30360
L57360 30410
L57390 30530
L57390 30610
L57360 30730
L57330 30790
L57270 30840
L57190 30870
L57040 30870
" />
<path d="M54000 32000
L57500 32000
" />
<path d="M55000 32000
L55000 34500
" />
</g>
<g style="fill:#000000; fill-opacity:0.0; 
stroke:#000000; stroke-width:0; stroke-opacity:1; 
stroke-linecap:round; stroke-linejoin:round;">
</g>
<g style="fill:#000000; fill-opacity:1.0; 
stroke:#000000; stroke-width:100; stroke-opacity:1; 
stroke-linecap:round; stroke-linejoin:round;">
<circle cx="55000" cy="32000" r="200" /> 
</g>
<g style="fill:#000000; fill-opacity:1.0; 
stroke:#000000; stroke-width:60; stroke-opacity:1; 
stroke-linecap:round; stroke-linejoin:round;">
</g>
<g style="fill:#000000; fill-opacity:0.0; 
stroke:#000000; stroke-width:60; stroke-opacity:1; 
stroke-linecap:round; stroke-linejoin:round;">
<path d="M55000 37000
L55000 39500
" />
<path d="M55820 31640
L56280 31640
" />
<path d="M56050 31870
L56050 31410
" />
<path d="M56590 31870
L56710 31870
L56760 31840
L56790 31810
L56850 31730
L56880 31610
L56880 31390
L56850 31330
L56820 31300
L56760 31270
L56650 31270
L56590 31300
L56560 31330
L56530 31390
L56530 31530
L56560 31590
L56590 31610
L56650 31640
L56760 31640
L56820 31610
L56850 31590
L56880 31530
" />
<path d="M57050 31270
L57250 31870
L57450 31270
" />
<path d="M54300 39040
L54270 39100
L54270 39190
L54300 39270
L54360 39330
L54410 39360
L54530 39390
L54610 39390
L54730 39360
L54790 39330
L54840 39270
L54870 39190
L54870 39130
L54840 39040
L54810 39010
L54610 39010
L54610 39130
" />
<path d="M54870 38760
L54270 38760
L54870 38410
L54270 38410
" />
<path d="M54870 38130
L54270 38130
L54270 37980
L54300 37900
L54360 37840
L54410 37810
L54530 37780
L54610 37780
L54730 37810
L54790 37840
L54840 37900
L54870 37980
L54870 38130
" />
<path d="M24000 24500
L24000 29500
" />
<path d="M27500 27000
L24000 27000
" />
</g>
<g style="fill:#000000; fill-opacity:0.0; 
stroke:#000000; stroke-width:0; stroke-opacity:1; 
stroke-linecap:round; stroke-linejoin:round;">
</g>
<g style="fill:#000000; fill-opacity:1.0; 
stroke:#000000; stroke-width:100; stroke-opacity:1; 
stroke-linecap:round; stroke-linejoin:round;">
<circle cx="24000" cy="27000" r="200" /> 
</g>
<g style="fill:#000000; fill-opacity:1.0; 
stroke:#000000; stroke-width:60; stroke-opacity:1; 
stroke-linecap:round; stroke-linejoin:round;">
</g>
<g style="fill:#000000; fill-opacity:0.0; 
stroke:#000000; stroke-width:60; stroke-opacity:1; 
stroke-linecap:round; stroke-linejoin:round;">
<path d="M30000 27000
L39500 27000
" />
<path d="M33000 27000
L33000 29500
" />
</g>
<g style="fill:#000000; fill-opacity:0.0; 
stroke:#000000; stroke-width:0; stroke-opacity:1; 
stroke-linecap:round; stroke-linejoin:round;">
</g>
<g style="fill:#000000; fill-opacity:1.0; 
stroke:#000000; stroke-width:100; stroke-opacity:1; 
stroke-linecap:round; stroke-linejoin:round;">
<circle cx="33000" cy="27000" r="200" /> 
</g>
<g style="fill:#000000; fill-opacity:1.0; 
stroke:#000000; stroke-width:60; stroke-opacity:1; 
stroke-linecap:round; stroke-linejoin:round;">
</g>
<g style="fill:#000000; fill-opacity:0.0; 
stroke:#000000; stroke-width:60; stroke-opacity:1; 
stroke-linecap:round; stroke-linejoin:round;">
<path d="M24000 32500
L24000 35000
" />
<path d="M23300 34540
L23270 34600
L23270 34690
L23300 34770
L23360 34830
L23410 34860
L23530 34890
L23610 34890
L23730 34860
L23790 34830
L23840 34770
L23870 34690
L23870 34630
L23840 34540
L23810 34510
L23610 34510
L23610 34630
" />
<path d="M23870 34260
L23270 34260
L23870 33910
L23270 33910
" />
<path d="M23870 33630
L23270 33630
L23270 33480
L23300 33400
L23360 33340
L23410 33310
L23530 33280
L23610 33280
L23730 33310
L23790 33340
L23840 33400
L23870 33480
L23870 33630
" />
<path d="M33000 32000
L33000 35000
" />
<path d="M32300 34540
L32270 34600
L32270 34690
L32300 34770
L32360 34830
L32410 34860
L32530 34890
L32610 34890
L32730 34860
L32790 34830
L32840 34770
L32870 34690
L32870 34630
L32840 34540
L32810 34510
L32610 34510
L32610 34630
" />
<path d="M32870 34260
L32270 34260
L32870 33910
L32270 33910
" />
<path d="M32870 33630
L32270 33630
L32270 33480
L32300 33400
L32360 33340
L32410 33310
L32530 33280
L32610 33280
L32730 33310
L32790 33340
L32840 33400
L32870 33480
L32870 33630
" />
<path d="M48000 41000
L59500 41000
" />
<path d="M38500 29000
L38500 41000
" />
<path d="M35000 41000
L45500 41000
" />
<path d="M39500 29000
L38500 29000
" />
</g>
<g style="fill:#000000; fill-opacity:0.0; 
stroke:#000000; stroke-width:0; stroke-opacity:1; 
stroke-linecap:round; stroke-linejoin:round;">
</g>
<g style="fill:#000000; fill-opacity:1.0; 
stroke:#000000; stroke-width:100; stroke-opacity:1; 
stroke-linecap:round; stroke-linejoin:round;">
<circle cx="38500" cy="41000" r="200" /> 
</g>
<g style="fill:#000000; fill-opacity:1.0; 
stroke:#000000; stroke-width:60; stroke-opacity:1; 
stroke-linecap:round; stroke-linejoin:round;">
</g>
<g style="fill:#000000; fill-opacity:0.0; 
stroke:#000000; stroke-width:60; stroke-opacity:1; 
stroke-linecap:round; stroke-linejoin:round;">
<path d="M35000 42000
L38500 42000
" />
<path d="M37130 41300
L37070 41270
L36980 41270
L36900 41300
L36840 41360
L36810 41410
L36780 41530
L36780 41610
L36810 41730
L36840 41790
L36900 41840
L36980 41870
L37040 41870
L37130 41840
L37160 41810
L37160 41610
L37040 41610
" />
<path d="M37410 41870
L37410 41270
L37760 41870
L37760 41270
" />
<path d="M38040 41870
L38040 41270
L38190 41270
L38270 41300
L38330 41360
L38360 41410
L38390 41530
L38390 41610
L38360 41730
L38330 41790
L38270 41840
L38190 41870
L38040 41870
" />
<path d="M64500 29000
L63500 29000
" />
<path d="M63500 29000
L63500 44000
" />
<path d="M70000 37000
L63500 37000
" />
</g>
<g style="fill:#000000; fill-opacity:0.0; 
stroke:#000000; stroke-width:0; stroke-opacity:1; 
stroke-linecap:round; stroke-linejoin:round;">
</g>
<g style="fill:#000000; fill-opacity:1.0; 
stroke:#000000; stroke-width:100; stroke-opacity:1; 
stroke-linecap:round; stroke-linejoin:round;">
<circle cx="63500" cy="37000" r="200" /> 
</g>
<g style="fill:#000000; fill-opacity:1.0; 
stroke:#000000; stroke-width:60; stroke-opacity:1; 
stroke-linecap:round; stroke-linejoin:round;">
</g>
<g style="fill:#000000; fill-opacity:0.0; 
stroke:#000000; stroke-width:60; stroke-opacity:1; 
stroke-linecap:round; stroke-linejoin:round;">
<path d="M72500 37000
L80000 37000
" />
<path d="M80000 27000
L80000 41500
" />
<path d="M79000 27000
L87000 27000
" />
<path d="M63500 48500
L63500 46500
" />
<path d="M63500 51000
L63500 53500
" />
<path d="M62800 53040
L62770 53100
L62770 53190
L62800 53270
L62860 53330
L62910 53360
L63030 53390
L63110 53390
L63230 53360
L63290 53330
L63340 53270
L63370 53190
L63370 53130
L63340 53040
L63310 53010
L63110 53010
L63110 53130
" />
<path d="M63370 52760
L62770 52760
L63370 52410
L62770 52410
" />
<path d="M63370 52130
L62770 52130
L62770 51980
L62800 51900
L62860 51840
L62910 51810
L63030 51780
L63110 51780
L63230 51810
L63290 51840
L63340 51900
L63370 51980
L63370 52130
" />
<path d="M23640 20680
L23640 20220
" />
<path d="M23870 20450
L23410 20450
" />
<path d="M23870 19910
L23870 19790
L23840 19740
L23810 19710
L23730 19650
L23610 19620
L23390 19620
L23330 19650
L23300 19680
L23270 19740
L23270 19850
L23300 19910
L23330 19940
L23390 19970
L23530 19970
L23590 19940
L23610 19910
L23640 19850
L23640 19740
L23610 19680
L23590 19650
L23530 19620
" />
<path d="M23270 19450
L23870 19250
L23270 19050
" />
<path d="M24000 22000
L24000 19000
" />
<path d="M59500 41000
L59500 27000
" />
<path d="M54000 27000
L64500 27000
" />
</g>
<g style="fill:#000000; fill-opacity:0.0; 
stroke:#000000; stroke-width:0; stroke-opacity:1; 
stroke-linecap:round; stroke-linejoin:round;">
</g>
<g style="fill:#000000; fill-opacity:1.0; 
stroke:#000000; stroke-width:100; stroke-opacity:1; 
stroke-linecap:round; stroke-linejoin:round;">
<circle cx="59500" cy="27000" r="200" /> 
</g>
<g style="fill:#000000; fill-opacity:1.0; 
stroke:#000000; stroke-width:60; stroke-opacity:1; 
stroke-linecap:round; stroke-linejoin:round;">
</g>
<g style="fill:#000000; fill-opacity:0.0; 
stroke:#000000; stroke-width:60; stroke-opacity:1; 
stroke-linecap:round; stroke-linejoin:round;">
<path d="M70000 41500
L63500 41500
" />
</g>
<g style="fill:#000000; fill-opacity:0.0; 
stroke:#000000; stroke-width:0; stroke-opacity:1; 
stroke-linecap:round; stroke-linejoin:round;">
</g>
<g style="fill:#000000; fill-opacity:1.0; 
stroke:#000000; stroke-width:100; stroke-opacity:1; 
stroke-linecap:round; stroke-linejoin:round;">
<circle cx="63500" cy="41500" r="200" /> 
</g>
<g style="fill:#000000; fill-opacity:1.0; 
stroke:#000000; stroke-width:60; stroke-opacity:1; 
stroke-linecap:round; stroke-linejoin:round;">
</g>
<g style="fill:#000000; fill-opacity:0.0; 
stroke:#000000; stroke-width:60; stroke-opacity:1; 
stroke-linecap:round; stroke-linejoin:round;">
<path d="M80000 41500
L72500 41500
" />
</g>
<g style="fill:#000000; fill-opacity:0.0; 
stroke:#000000; stroke-width:0; stroke-opacity:1; 
stroke-linecap:round; stroke-linejoin:round;">
</g>
<g style="fill:#000000; fill-opacity:1.0; 
stroke:#000000; stroke-width:100; stroke-opacity:1; 
stroke-linecap:round; stroke-linejoin:round;">
<circle cx="80000" cy="37000" r="200" /> 
</g>
<g style="fill:#000000; fill-opacity:1.0; 
stroke:#000000; stroke-width:0; stroke-opacity:1; 
stroke-linecap:round; stroke-linejoin:round;">
</g>
<g style="fill:#000000; fill-opacity:1.0; 
stroke:#000000; stroke-width:100; stroke-opacity:1; 
stroke-linecap:round; stroke-linejoin:round;">
<circle cx="80000" cy="27000" r="200" /> 
</g>
<g style="fill:#000000; fill-opacity:1.0; 
stroke:#000000; stroke-width:60; stroke-opacity:1; 
stroke-linecap:round; stroke-linejoin:round;">
</g>
<g style="fill:#000000; fill-opacity:0.0; 
stroke:#000000; stroke-width:60; stroke-opacity:1; 
stroke-linecap:round; stroke-linejoin:round;">
<path d="M83500 28000
L87000 28000
" />
<path d="M83960 27300
L83900 27270
L83810 27270
L83730 27300
L83670 27360
L83640 27410
L83610 27530
L83610 27610
L83640 27730
L83670 27790
L83730 27840
L83810 27870
L83870 27870
L83960 27840
L83990 27810
L83990 27610
L83870 27610
" />
<path d="M84240 27870
L84240 27270
L84590 27870
L84590 27270
" />
<path d="M84870 27870
L84870 27270
L85020 27270
L85100 27300
L85160 27360
L85190 27410
L85220 27530
L85220 27610
L85190 27730
L85160 27790
L85100 27840
L85020 27870
L84870 27870
" />
<path d="M83500 26000
L87000 26000
" />
<path d="M83640 25640
L84100 25640
" />
<path d="M83870 25870
L83870 25410
" />
<path d="M84410 25870
L84530 25870
L84580 25840
L84610 25810
L84670 25730
L84700 25610
L84700 25390
L84670 25330
L84640 25300
L84580 25270
L84470 25270
L84410 25300
L84380 25330
L84350 25390
L84350 25530
L84380 25590
L84410 25610
L84470 25640
L84580 25640
L84640 25610
L84670 25590
L84700 25530
" />
<path d="M84870 25270
L85070 25870
L85270 25270
" />
</g>
<g style="fill:#000000; fill-opacity:0.0; 
stroke:#000000; stroke-width:0; stroke-opacity:1; 
stroke-linecap:round; stroke-linejoin:round;">
</g>
<g style="fill:#000000; fill-opacity:0.0; 
stroke:#000000; stroke-width:60; stroke-opacity:1; 
stroke-linecap:round; stroke-linejoin:round;">
<rect x="23500" y="22000" width="1000" height="2500" rx="0" />
<path d="M24000 24500
L24000 24500
" />
<path d="M24000 22000
L24000 22000
" />
<path d="M25880 22840
L25650 22500
" />
<path d="M25480 22840
L25480 22130
L25750 22130
L25820 22160
L25850 22190
L25880 22260
L25880 22360
L25850 22430
L25820 22460
L25750 22500
L25480 22500
" />
<path d="M26560 22840
L26160 22840
" />
<path d="M26360 22840
L26360 22130
L26290 22230
L26220 22300
L26160 22330
" />
<path d="M25650 23840
L25250 23840
" />
<path d="M25450 23840
L25450 23130
L25380 23230
L25310 23300
L25250 23330
" />
<path d="M26500 23360
L26500 23840
" />
<path d="M26570 23570
L26770 23840
" />
<path d="M26770 23360
L26500 23630
" />
</g>
<g style="fill:#000000; fill-opacity:0.0; 
stroke:#000000; stroke-width:0; stroke-opacity:1; 
stroke-linecap:round; stroke-linejoin:round;">
</g>
<g style="fill:#000000; fill-opacity:0.0; 
stroke:#000000; stroke-width:60; stroke-opacity:1; 
stroke-linecap:round; stroke-linejoin:round;">
<rect x="27500" y="26500" width="2500" height="1000" rx="0" />
<path d="M27500 27000
L27500 27000
" />
<path d="M30000 27000
L30000 27000
" />
<path d="M28880 24790
L28650 24450
" />
<path d="M28480 24790
L28480 24080
L28750 24080
L28820 24110
L28850 24140
L28880 24210
L28880 24310
L28850 24380
L28820 24410
L28750 24450
L28480 24450
" />
<path d="M29160 24140
L29190 24110
L29260 24080
L29430 24080
L29490 24110
L29530 24140
L29560 24210
L29560 24280
L29530 24380
L29120 24790
L29560 24790
" />
<path d="M28110 25080
L27770 25080
L27740 25410
L27770 25380
L27840 25350
L28010 25350
L28070 25380
L28110 25410
L28140 25480
L28140 25650
L28110 25720
L28070 25750
L28010 25790
L27840 25790
L27770 25750
L27740 25720
" />
<path d="M28450 25720
L28480 25750
L28450 25790
L28420 25750
L28450 25720
L28450 25790
" />
<path d="M29160 25790
L28760 25790
" />
<path d="M28960 25790
L28960 25080
L28890 25180
L28820 25250
L28760 25280
" />
<path d="M30010 25310
L30010 25790
" />
<path d="M30080 25520
L30280 25790
" />
<path d="M30280 25310
L30010 25580
" />
</g>
<g style="fill:#000000; fill-opacity:0.0; 
stroke:#000000; stroke-width:0; stroke-opacity:1; 
stroke-linecap:round; stroke-linejoin:round;">
</g>
<g style="fill:#000000; fill-opacity:0.0; 
stroke:#000000; stroke-width:60; stroke-opacity:1; 
stroke-linecap:round; stroke-linejoin:round;">
<polyline fill="none;"
points="24000,31500
24000,30500
" /> 
<polyline fill="none;"
points="24500,30500
24500,30750
" /> 
<polyline fill="none;"
points="23500,30500
24500,30500
" /> 
<polyline fill="none;"
points="23500,31500
24500,31500
24000,30500
23500,31500
" /> 
<path d="M24000 31500
L24000 32500
" />
<path d="M24000 30500
L24000 29500
" />
<path d="M25570 29630
L25800 30340
L26040 29630
" />
<path d="M26280 30340
L26280 29630
L26450 29630
L26550 29660
L26620 29730
L26650 29800
L26680 29930
L26680 30030
L26650 30170
L26620 30230
L26550 30300
L26450 30340
L26280 30340
" />
<path d="M27360 30340
L26960 30340
" />
<path d="M27160 30340
L27160 29630
L27090 29730
L27020 29800
L26960 29830
" />
<path d="M25390 31460
L25490 31500
L25520 31530
L25550 31600
L25550 31700
L25520 31770
L25490 31800
L25420 31840
L25150 31840
L25150 31130
L25390 31130
L25450 31160
L25490 31190
L25520 31260
L25520 31330
L25490 31400
L25450 31430
L25390 31460
L25150 31460
" />
<path d="M25790 31130
L26260 31130
L25790 31840
L26260 31840
" />
<path d="M26440 31130
L26670 31840
L26910 31130
" />
<path d="M27490 31130
L27150 31130
L27120 31460
L27150 31430
L27220 31400
L27390 31400
L27450 31430
L27490 31460
L27520 31530
L27520 31700
L27490 31770
L27450 31800
L27390 31840
L27220 31840
L27150 31800
L27120 31770
" />
<path d="M28170 31130
L27830 31130
L27800 31460
L27830 31430
L27900 31400
L28070 31400
L28130 31430
L28170 31460
L28200 31530
L28200 31700
L28170 31770
L28130 31800
L28070 31840
L27900 31840
L27830 31800
L27800 31770
" />
<path d="M28910 31770
L28880 31800
L28780 31840
L28710 31840
L28610 31800
L28540 31730
L28510 31670
L28480 31530
L28480 31430
L28510 31300
L28540 31230
L28610 31160
L28710 31130
L28780 31130
L28880 31160
L28910 31190
" />
<path d="M29150 31130
L29590 31130
L29350 31400
L29460 31400
L29520 31430
L29560 31460
L29590 31530
L29590 31700
L29560 31770
L29520 31800
L29460 31840
L29250 31840
L29190 31800
L29150 31770
" />
<path d="M29800 31130
L30030 31840
L30270 31130
" />
<path d="M30440 31130
L30880 31130
L30640 31400
L30750 31400
L30810 31430
L30850 31460
L30880 31530
L30880 31700
L30850 31770
L30810 31800
L30750 31840
L30540 31840
L30480 31800
L30440 31770
" />
</g>
<g style="fill:#000000; fill-opacity:0.0; 
stroke:#000000; stroke-width:0; stroke-opacity:1; 
stroke-linecap:round; stroke-linejoin:round;">
</g>
<g style="fill:#000000; fill-opacity:0.0; 
stroke:#000000; stroke-width:60; stroke-opacity:1; 
stroke-linecap:round; stroke-linejoin:round;">
<rect x="45500" y="40500" width="2500" height="1000" rx="0" />
<path d="M45500 41000
L45500 41000
" />
<path d="M48000 41000
L48000 41000
" />
<path d="M46880 38790
L46650 38450
" />
<path d="M46480 38790
L46480 38080
L46750 38080
L46820 38110
L46850 38140
L46880 38210
L46880 38310
L46850 38380
L46820 38410
L46750 38450
L46480 38450
" />
<path d="M47490 38310
L47490 38790
" />
<path d="M47320 38040
L47160 38550
L47590 38550
" />
<path d="M46110 39080
L45770 39080
L45740 39410
L45770 39380
L45840 39350
L46010 39350
L46070 39380
L46110 39410
L46140 39480
L46140 39650
L46110 39720
L46070 39750
L46010 39790
L45840 39790
L45770 39750
L45740 39720
" />
<path d="M46450 39720
L46480 39750
L46450 39790
L46420 39750
L46450 39720
L46450 39790
" />
<path d="M47160 39790
L46760 39790
" />
<path d="M46960 39790
L46960 39080
L46890 39180
L46820 39250
L46760 39280
" />
<path d="M48010 39310
L48010 39790
" />
<path d="M48080 39520
L48280 39790
" />
<path d="M48280 39310
L48010 39580
" />
</g>
<g style="fill:#000000; fill-opacity:0.0; 
stroke:#000000; stroke-width:0; stroke-opacity:1; 
stroke-linecap:round; stroke-linejoin:round;">
</g>
<g style="fill:#000000; fill-opacity:0.0; 
stroke:#000000; stroke-width:60; stroke-opacity:1; 
stroke-linecap:round; stroke-linejoin:round;">
<rect x="70000" y="36500" width="2500" height="1000" rx="0" />
<path d="M70000 37000
L70000 37000
" />
<path d="M72500 37000
L72500 37000
" />
<path d="M71380 34790
L71150 34450
" />
<path d="M70980 34790
L70980 34080
L71250 34080
L71320 34110
L71350 34140
L71380 34210
L71380 34310
L71350 34380
L71320 34410
L71250 34450
L70980 34450
" />
<path d="M71620 34080
L72060 34080
L71820 34350
L71930 34350
L71990 34380
L72030 34410
L72060 34480
L72060 34650
L72030 34720
L71990 34750
L71930 34790
L71720 34790
L71660 34750
L71620 34720
" />
<path d="M70470 35790
L70070 35790
" />
<path d="M70270 35790
L70270 35080
L70200 35180
L70130 35250
L70070 35280
" />
<path d="M70910 35080
L70980 35080
L71050 35110
L71080 35140
L71120 35210
L71150 35350
L71150 35520
L71120 35650
L71080 35720
L71050 35750
L70980 35790
L70910 35790
L70850 35750
L70810 35720
L70780 35650
L70750 35520
L70750 35350
L70780 35210
L70810 35140
L70850 35110
L70910 35080
" />
<path d="M71590 35080
L71660 35080
L71730 35110
L71760 35140
L71800 35210
L71830 35350
L71830 35520
L71800 35650
L71760 35720
L71730 35750
L71660 35790
L71590 35790
L71530 35750
L71490 35720
L71460 35650
L71430 35520
L71430 35350
L71460 35210
L71490 35140
L71530 35110
L71590 35080
" />
<path d="M72680 35310
L72680 35790
" />
<path d="M72750 35520
L72950 35790
" />
<path d="M72950 35310
L72680 35580
" />
</g>
<g style="fill:#000000; fill-opacity:0.0; 
stroke:#000000; stroke-width:0; stroke-opacity:1; 
stroke-linecap:round; stroke-linejoin:round;">
</g>
<g style="fill:#000000; fill-opacity:0.0; 
stroke:#000000; stroke-width:60; stroke-opacity:1; 
stroke-linecap:round; stroke-linejoin:round;">
<rect x="63000" y="44000" width="1000" height="2500" rx="0" />
<path d="M63500 44000
L63500 44000
" />
<path d="M63500 46500
L63500 46500
" />
<path d="M65380 45290
L65150 44950
" />
<path d="M64980 45290
L64980 44580
L65250 44580
L65320 44610
L65350 44640
L65380 44710
L65380 44810
L65350 44880
L65320 44910
L65250 44950
L64980 44950
" />
<path d="M66030 44580
L65690 44580
L65660 44910
L65690 44880
L65760 44850
L65930 44850
L65990 44880
L66030 44910
L66060 44980
L66060 45150
L66030 45220
L65990 45250
L65930 45290
L65760 45290
L65690 45250
L65660 45220
" />
<path d="M65110 45580
L64770 45580
L64740 45910
L64770 45880
L64840 45850
L65010 45850
L65070 45880
L65110 45910
L65140 45980
L65140 46150
L65110 46220
L65070 46250
L65010 46290
L64840 46290
L64770 46250
L64740 46220
" />
<path d="M65450 46220
L65480 46250
L65450 46290
L65420 46250
L65450 46220
L65450 46290
" />
<path d="M66160 46290
L65760 46290
" />
<path d="M65960 46290
L65960 45580
L65890 45680
L65820 45750
L65760 45780
" />
<path d="M67010 45810
L67010 46290
" />
<path d="M67080 46020
L67280 46290
" />
<path d="M67280 45810
L67010 46080
" />
</g>
<g style="fill:#000000; fill-opacity:0.0; 
stroke:#000000; stroke-width:0; stroke-opacity:1; 
stroke-linecap:round; stroke-linejoin:round;">
</g>
<g style="fill:#000000; fill-opacity:0.0; 
stroke:#000000; stroke-width:60; stroke-opacity:1; 
stroke-linecap:round; stroke-linejoin:round;">
<polyline fill="none;"
points="64500,49000
64000,49000
" /> 
<polyline fill="none;"
points="64250,49500
62750,49500
" /> 
<polyline fill="none;"
points="64250,49900
62750,49900
" /> 
<polyline fill="none;"
points="64250,48750
64250,49250
64250,49250
" /> 
<path d="M63500 49480
L63500 48500
" />
<path d="M63500 49900
L63500 51000
" />
<path d="M66380 49220
L66350 49250
L66250 49290
L66180 49290
L66080 49250
L66010 49180
L65980 49120
L65950 48980
L65950 48880
L65980 48750
L66010 48680
L66080 48610
L66180 48580
L66250 48580
L66350 48610
L66380 48640
" />
<path d="M66990 48810
L66990 49290
" />
<path d="M66820 48540
L66660 49050
L67090 49050
" />
<path d="M65870 50310
L65870 50790
" />
<path d="M65700 50040
L65540 50550
L65970 50550
" />
<path d="M66180 50080
L66650 50080
L66350 50790
" />
<path d="M67470 50790
L67470 50310
L67670 50680
L67870 50310
L67870 50790
" />
<path d="M68210 50310
L68210 50790
" />
<path d="M68280 50520
L68480 50790
" />
<path d="M68480 50310
L68210 50580
" />
</g>
<g style="fill:#000000; fill-opacity:0.0; 
stroke:#000000; stroke-width:0; stroke-opacity:1; 
stroke-linecap:round; stroke-linejoin:round;">
</g>
<g style="fill:#000000; fill-opacity:0.0; 
stroke:#000000; stroke-width:60; stroke-opacity:1; 
stroke-linecap:round; stroke-linejoin:round;">
<polyline fill="none;"
points="71500,40750
71500,42250
" /> 
<polyline fill="none;"
points="71100,40750
71100,42250
" /> 
<path d="M71520 41500
L72500 41500
" />
<path d="M71100 41500
L70000 41500
" />
<path d="M71120 38970
L71090 39000
L70990 39040
L70920 39040
L70820 39000
L70750 38930
L70720 38870
L70690 38730
L70690 38630
L70720 38500
L70750 38430
L70820 38360
L70920 38330
L70990 38330
L71090 38360
L71120 38390
" />
<path d="M71360 38330
L71800 38330
L71560 38600
L71670 38600
L71730 38630
L71770 38660
L71800 38730
L71800 38900
L71770 38970
L71730 39000
L71670 39040
L71460 39040
L71400 39000
L71360 38970
" />
<path d="M70120 39390
L70150 39360
L70220 39330
L70390 39330
L70450 39360
L70490 39390
L70520 39460
L70520 39530
L70490 39630
L70080 40040
L70520 40040
" />
<path d="M70800 39390
L70830 39360
L70900 39330
L71070 39330
L71130 39360
L71170 39390
L71200 39460
L71200 39530
L71170 39630
L70760 40040
L71200 40040
" />
<path d="M72050 40040
L72050 39560
L72350 39560
L72350 40040
" />
</g>
<g style="fill:#000000; fill-opacity:0.0; 
stroke:#000000; stroke-width:0; stroke-opacity:1; 
stroke-linecap:round; stroke-linejoin:round;">
</g>
<g style="fill:#000000; fill-opacity:0.0; 
stroke:#000000; stroke-width:60; stroke-opacity:1; 
stroke-linecap:round; stroke-linejoin:round;">
<polyline fill="none;"
points="55750,35500
54250,35500
" /> 
<polyline fill="none;"
points="55750,35900
54250,35900
" /> 
<path d="M55000 35480
L55000 34500
" />
<path d="M55000 35900
L55000 37000
" />
<path d="M51880 35220
L51850 35250
L51750 35290
L51680 35290
L51580 35250
L51510 35180
L51480 35120
L51450 34980
L51450 34880
L51480 34750
L51510 34680
L51580 34610
L51680 34580
L51750 34580
L51850 34610
L51880 34640
" />
<path d="M52160 34640
L52190 34610
L52260 34580
L52430 34580
L52490 34610
L52530 34640
L52560 34710
L52560 34780
L52530 34880
L52120 35290
L52560 35290
" />
<path d="M50530 36080
L50600 36080
L50670 36110
L50700 36140
L50740 36210
L50770 36350
L50770 36520
L50740 36650
L50700 36720
L50670 36750
L50600 36790
L50530 36790
L50470 36750
L50430 36720
L50400 36650
L50370 36520
L50370 36350
L50400 36210
L50430 36140
L50470 36110
L50530 36080
" />
<path d="M51080 36720
L51110 36750
L51080 36790
L51050 36750
L51080 36720
L51080 36790
" />
<path d="M51790 36790
L51390 36790
" />
<path d="M51590 36790
L51590 36080
L51520 36180
L51450 36250
L51390 36280
" />
<path d="M52640 36790
L52640 36310
L52840 36680
L53040 36310
L53040 36790
" />
<path d="M53380 36310
L53380 36790
" />
<path d="M53450 36520
L53650 36790
" />
<path d="M53650 36310
L53380 36580
" />
</g>
<g style="fill:#000000; fill-opacity:0.0; 
stroke:#000000; stroke-width:0; stroke-opacity:1; 
stroke-linecap:round; stroke-linejoin:round;">
</g>
<g style="fill:#000000; fill-opacity:0.0; 
stroke:#000000; stroke-width:60; stroke-opacity:1; 
stroke-linecap:round; stroke-linejoin:round;">
<polyline fill="none;"
points="33750,30500
32250,30500
" /> 
<polyline fill="none;"
points="33750,30900
32250,30900
" /> 
<path d="M33000 30480
L33000 29500
" />
<path d="M33000 30900
L33000 32000
" />
<path d="M35380 30220
L35350 30250
L35250 30290
L35180 30290
L35080 30250
L35010 30180
L34980 30120
L34950 29980
L34950 29880
L34980 29750
L35010 29680
L35080 29610
L35180 29580
L35250 29580
L35350 29610
L35380 29640
" />
<path d="M36060 30290
L35660 30290
" />
<path d="M35860 30290
L35860 29580
L35790 29680
L35720 29750
L35660 29780
" />
<path d="M34530 31080
L34600 31080
L34670 31110
L34700 31140
L34740 31210
L34770 31350
L34770 31520
L34740 31650
L34700 31720
L34670 31750
L34600 31790
L34530 31790
L34470 31750
L34430 31720
L34400 31650
L34370 31520
L34370 31350
L34400 31210
L34430 31140
L34470 31110
L34530 31080
" />
<path d="M35080 31720
L35110 31750
L35080 31790
L35050 31750
L35080 31720
L35080 31790
" />
<path d="M35790 31790
L35390 31790
" />
<path d="M35590 31790
L35590 31080
L35520 31180
L35450 31250
L35390 31280
" />
<path d="M36640 31790
L36640 31310
L36840 31680
L37040 31310
L37040 31790
" />
<path d="M37380 31310
L37380 31790
" />
<path d="M37450 31520
L37650 31790
" />
<path d="M37650 31310
L37380 31580
" />
</g>
<g style="fill:#000000; fill-opacity:0.0; 
stroke:#000000; stroke-width:0; stroke-opacity:1; 
stroke-linecap:round; stroke-linejoin:round;">
</g>
<g style="fill:#000000; fill-opacity:0.0; 
stroke:#000000; stroke-width:60; stroke-opacity:1; 
stroke-linecap:round; stroke-linejoin:round;">
<polyline fill="none;"
points="32500,41000
32500,42000
" /> 
<polyline fill="none;"
points="32000,41000
32000,42000
" /> 
<polyline fill="none;"
points="31500,41500
31000,42000
31500,42500
" /> 
<polyline fill="none;"
points="31500,40500
31000,41000
31500,41500
" /> 
<path d="M31000 41000
L35000 41000
" />
<path d="M33110 40880
L32890 40880
" />
<path d="M33000 40880
L33000 40480
L32960 40540
L32920 40580
L32890 40600
" />
<path d="M31000 42000
L35000 42000
" />
<path d="M32890 41520
L32910 41500
L32940 41480
L33040 41480
L33080 41500
L33100 41520
L33110 41560
L33110 41600
L33100 41650
L32870 41880
L33110 41880
" />
<path d="M32110 38420
L32440 38920
" />
<path d="M32440 38420
L32110 38920
" />
<path d="M32640 38920
L32640 38420
L32830 38420
L32880 38440
L32900 38460
L32920 38510
L32920 38580
L32900 38630
L32880 38650
L32830 38680
L32640 38680
" />
<path d="M33400 38920
L33120 38920
" />
<path d="M33260 38920
L33260 38420
L33210 38490
L33160 38540
L33120 38560
" />
<path d="M31970 39420
L32090 39920
L32190 39560
L32280 39920
L32400 39420
" />
<path d="M32760 39650
L32590 39650
" />
<path d="M32590 39920
L32590 39420
L32830 39420
" />
<path d="M33020 39730
L33400 39730
" />
<path d="M33620 39460
L33640 39440
L33690 39420
L33810 39420
L33850 39440
L33880 39460
L33900 39510
L33900 39560
L33880 39630
L33590 39920
L33900 39920
" />
<path d="M34400 39920
L34240 39680
" />
<path d="M34120 39920
L34120 39420
L34310 39420
L34360 39440
L34380 39460
L34400 39510
L34400 39580
L34380 39630
L34360 39650
L34310 39680
L34120 39680
" />
</g>
<g style="fill:#000000; fill-opacity:0.0; 
stroke:#000000; stroke-width:0; stroke-opacity:1; 
stroke-linecap:round; stroke-linejoin:round;">
</g>
<g style="fill:#000000; fill-opacity:0.0; 
stroke:#000000; stroke-width:60; stroke-opacity:1; 
stroke-linecap:round; stroke-linejoin:round;">
<polyline fill="none;"
points="89500,28000
89500,26000
" /> 
<polyline fill="none;"
points="90000,28000
90000,26000
" /> 
<polyline fill="none;"
points="90500,26500
91000,26000
90500,25500
" /> 
<polyline fill="none;"
points="90500,27500
91000,27000
90500,26500
" /> 
<polyline fill="none;"
points="90500,28500
91000,28000
90500,27500
" /> 
<path d="M91000 28000
L87000 28000
" />
<path d="M89110 27880
L88890 27880
" />
<path d="M89000 27880
L89000 27480
L88960 27540
L88920 27580
L88890 27600
" />
<path d="M91000 27000
L87000 27000
" />
<path d="M88890 26520
L88910 26500
L88940 26480
L89040 26480
L89080 26500
L89100 26520
L89110 26560
L89110 26600
L89100 26650
L88870 26880
L89110 26880
" />
<path d="M91000 26000
L87000 26000
" />
<path d="M88870 25480
L89110 25480
L88980 25630
L89040 25630
L89080 25650
L89100 25670
L89110 25710
L89110 25800
L89100 25840
L89080 25860
L89040 25880
L88920 25880
L88890 25860
L88870 25840
" />
<path d="M88070 23540
L88400 24040
" />
<path d="M88400 23540
L88070 24040
" />
<path d="M88600 24040
L88600 23540
L88790 23540
L88840 23560
L88860 23580
L88880 23630
L88880 23700
L88860 23750
L88840 23770
L88790 23800
L88600 23800
" />
<path d="M89080 23580
L89100 23560
L89150 23540
L89270 23540
L89310 23560
L89340 23580
L89360 23630
L89360 23680
L89340 23750
L89050 24040
L89360 24040
" />
<path d="M87570 24540
L87690 25040
L87790 24680
L87880 25040
L88000 24540
" />
<path d="M88360 24770
L88190 24770
" />
<path d="M88190 25040
L88190 24540
L88430 24540
" />
<path d="M88620 24850
L89000 24850
" />
<path d="M89190 24540
L89500 24540
L89330 24730
L89410 24730
L89450 24750
L89480 24770
L89500 24820
L89500 24940
L89480 24990
L89450 25010
L89410 25040
L89260 25040
L89220 25010
L89190 24990
" />
<path d="M90000 25040
L89840 24800
" />
<path d="M89720 25040
L89720 24540
L89910 24540
L89960 24560
L89980 24580
L90000 24630
L90000 24700
L89980 24750
L89960 24770
L89910 24800
L89720 24800
" />
</g>
<g style="fill:#000000; fill-opacity:0.0; 
stroke:#000000; stroke-width:0; stroke-opacity:1; 
stroke-linecap:round; stroke-linejoin:round;">
</g>
<g style="fill:#000000; fill-opacity:0.0; 
stroke:#000000; stroke-width:60; stroke-opacity:1; 
stroke-linecap:round; stroke-linejoin:round;">
<path d="M51000 27000
L54000 27000
" />
<path d="M48570 26670
L48680 26670
L48740 26700
L48800 26760
L48820 26870
L48820 27070
L48800 27190
L48740 27240
L48680 27270
L48570 27270
L48510 27240
L48450 27190
L48420 27070
L48420 26870
L48450 26760
L48510 26700
L48570 26670
" />
<path d="M49080 26670
L49080 27160
L49110 27210
L49140 27240
L49200 27270
L49310 27270
L49370 27240
L49400 27210
L49430 27160
L49430 26670
" />
<path d="M49630 26670
L49970 26670
" />
<path d="M49800 27270
L49800 26670
" />
<path d="M50490 27270
L50140 27270
" />
<path d="M50320 27270
L50320 26670
L50260 26760
L50200 26810
L50140 26840
" />
<path d="M52680 26870
L52330 26870
" />
<path d="M52510 26870
L52510 26270
L52450 26360
L52390 26410
L52330 26440
" />
<path d="M42500 29000
L39500 29000
" />
<path d="M43040 29270
L43040 28670
" />
<path d="M43330 29270
L43330 28670
L43680 29270
L43680 28670
" />
<path d="M44280 29270
L43930 29270
" />
<path d="M44110 29270
L44110 28670
L44050 28760
L43990 28810
L43930 28840
" />
<path d="M42900 28570
L44390 28570
" />
<path d="M40830 28330
L40860 28300
L40920 28270
L41060 28270
L41120 28300
L41150 28330
L41180 28390
L41180 28440
L41150 28530
L40810 28870
L41180 28870
" />
<path d="M42500 27000
L39500 27000
" />
<path d="M43040 27270
L43040 26670
" />
<path d="M43330 27270
L43330 26670
L43680 27270
L43680 26670
" />
<path d="M44280 27270
L43930 27270
" />
<path d="M44110 27270
L44110 26670
L44050 26760
L43990 26810
L43930 26840
" />
<path d="M40810 26270
L41180 26270
L40980 26500
L41060 26500
L41120 26530
L41150 26560
L41180 26610
L41180 26760
L41150 26810
L41120 26840
L41060 26870
L40890 26870
L40830 26840
L40810 26810
" />
<path d="M51000 31000
L54000 31000
" />
<path d="M49410 30670
L49610 31270
L49810 30670
" />
<path d="M50000 31040
L50460 31040
" />
<path d="M52620 30470
L52620 30870
" />
<path d="M52480 30240
L52330 30670
L52710 30670
" />
<path d="M51000 32000
L54000 32000
" />
<path d="M49410 31670
L49610 32270
L49810 31670
" />
<path d="M50000 32040
L50460 32040
" />
<path d="M50230 32270
L50230 31810
" />
<path d="M52450 31530
L52390 31500
L52360 31470
L52330 31410
L52330 31390
L52360 31330
L52390 31300
L52450 31270
L52560 31270
L52620 31300
L52650 31330
L52680 31390
L52680 31410
L52650 31470
L52620 31500
L52560 31530
L52450 31530
L52390 31560
L52360 31590
L52330 31640
L52330 31760
L52360 31810
L52390 31840
L52450 31870
L52560 31870
L52620 31840
L52650 31810
L52680 31760
L52680 31640
L52650 31590
L52620 31560
L52560 31530
" />
<circle cx="42500" cy="29000" r="250" /> 
<rect x="42500" y="26000" width="8500" height="7000" rx="0" />
<polyline fill="none;"
points="45500,30000
42500,30000
" /> 
<polyline fill="none;"
points="45500,28000
42500,28000
" /> 
<polyline fill="none;"
points="45500,26000
45500,33000
" /> 
<polyline fill="none;"
points="48000,26000
48000,33000
" /> 
<polyline fill="none;"
points="51000,28000
48000,28000
" /> 
<polyline fill="none;"
points="46500,26750
46500,27250
47000,27000
46500,26750
" /> 
<path d="M45550 24240
L45550 23640
L45700 23640
L45780 23670
L45840 23730
L45870 23780
L45900 23900
L45900 23980
L45870 24100
L45840 24160
L45780 24210
L45700 24240
L45550 24240
" />
<path d="M46120 24070
L46410 24070
" />
<path d="M46070 24240
L46270 23640
L46470 24240
" />
<path d="M46980 24240
L46630 24240
" />
<path d="M46810 24240
L46810 23640
L46750 23730
L46690 23780
L46630 23810
" />
<path d="M47200 24070
L47490 24070
" />
<path d="M47150 24240
L47350 23640
L47550 24240
" />
<path d="M44360 25240
L44360 24640
L44710 25240
L44710 24640
" />
<path d="M44990 24930
L45190 24930
" />
<path d="M45280 25240
L44990 25240
L44990 24640
L45280 24640
" />
<path d="M45820 24640
L45530 24640
L45500 24930
L45530 24900
L45590 24870
L45730 24870
L45790 24900
L45820 24930
L45850 24980
L45850 25130
L45820 25180
L45790 25210
L45730 25240
L45590 25240
L45530 25210
L45500 25180
" />
<path d="M46390 24640
L46100 24640
L46070 24930
L46100 24900
L46160 24870
L46300 24870
L46360 24900
L46390 24930
L46420 24980
L46420 25130
L46390 25180
L46360 25210
L46300 25240
L46160 25240
L46100 25210
L46070 25180
" />
<path d="M46620 24640
L46990 24640
L46790 24870
L46870 24870
L46930 24900
L46960 24930
L46990 24980
L46990 25130
L46960 25180
L46930 25210
L46870 25240
L46700 25240
L46640 25210
L46620 25180
" />
<path d="M47210 24700
L47240 24670
L47300 24640
L47440 24640
L47500 24670
L47530 24700
L47560 24760
L47560 24810
L47530 24900
L47190 25240
L47560 25240
" />
<path d="M47780 25070
L48070 25070
" />
<path d="M47730 25240
L47930 24640
L48130 25240
" />
<path d="M48320 25240
L48320 24640
L48470 24640
L48550 24670
L48610 24730
L48640 24780
L48670 24900
L48670 24980
L48640 25100
L48610 25160
L48550 25210
L48470 25240
L48320 25240
" />
</g>
<g style="fill:#000000; fill-opacity:0.0; 
stroke:#000000; stroke-width:0; stroke-opacity:1; 
stroke-linecap:round; stroke-linejoin:round;">
</g>
<g style="fill:#000000; fill-opacity:0.0; 
stroke:#000000; stroke-width:60; stroke-opacity:1; 
stroke-linecap:round; stroke-linejoin:round;">
<path d="M67500 27000
L64500 27000
" />
<path d="M68040 27270
L68040 26670
" />
<path d="M68330 27270
L68330 26670
L68680 27270
L68680 26670
" />
<path d="M68930 26730
L68960 26700
L69020 26670
L69160 26670
L69220 26700
L69250 26730
L69280 26790
L69280 26840
L69250 26930
L68910 27270
L69280 27270
" />
<path d="M66150 26270
L65860 26270
L65830 26560
L65860 26530
L65920 26500
L66060 26500
L66120 26530
L66150 26560
L66180 26610
L66180 26760
L66150 26810
L66120 26840
L66060 26870
L65920 26870
L65860 26840
L65830 26810
" />
<path d="M67500 29000
L64500 29000
" />
<path d="M68040 29270
L68040 28670
" />
<path d="M68330 29270
L68330 28670
L68680 29270
L68680 28670
" />
<path d="M68930 28730
L68960 28700
L69020 28670
L69160 28670
L69220 28700
L69250 28730
L69280 28790
L69280 28840
L69250 28930
L68910 29270
L69280 29270
" />
<path d="M67900 28570
L69390 28570
" />
<path d="M66120 28270
L66010 28270
L65950 28300
L65920 28330
L65860 28410
L65830 28530
L65830 28760
L65860 28810
L65890 28840
L65950 28870
L66060 28870
L66120 28840
L66150 28810
L66180 28760
L66180 28610
L66150 28560
L66120 28530
L66060 28500
L65950 28500
L65890 28530
L65860 28560
L65830 28610
" />
<path d="M76000 27000
L79000 27000
" />
<path d="M73570 26670
L73680 26670
L73740 26700
L73800 26760
L73820 26870
L73820 27070
L73800 27190
L73740 27240
L73680 27270
L73570 27270
L73510 27240
L73450 27190
L73420 27070
L73420 26870
L73450 26760
L73510 26700
L73570 26670
" />
<path d="M74080 26670
L74080 27160
L74110 27210
L74140 27240
L74200 27270
L74310 27270
L74370 27240
L74400 27210
L74430 27160
L74430 26670
" />
<path d="M74630 26670
L74970 26670
" />
<path d="M74800 27270
L74800 26670
" />
<path d="M75140 26730
L75170 26700
L75230 26670
L75370 26670
L75430 26700
L75460 26730
L75490 26790
L75490 26840
L75460 26930
L75120 27270
L75490 27270
" />
<path d="M77310 26270
L77710 26270
L77450 26870
" />
<circle cx="67500" cy="29000" r="250" /> 
<rect x="67500" y="26000" width="8500" height="7000" rx="0" />
<polyline fill="none;"
points="70500,30000
67500,30000
" /> 
<polyline fill="none;"
points="70500,28000
67500,28000
" /> 
<polyline fill="none;"
points="70500,26000
70500,33000
" /> 
<polyline fill="none;"
points="73000,26000
73000,33000
" /> 
<polyline fill="none;"
points="76000,28000
73000,28000
" /> 
<polyline fill="none;"
points="71500,26750
71500,27250
72000,27000
71500,26750
" /> 
<path d="M70500 24240
L70500 23640
L70650 23640
L70730 23670
L70790 23730
L70820 23780
L70850 23900
L70850 23980
L70820 24100
L70790 24160
L70730 24210
L70650 24240
L70500 24240
" />
<path d="M71070 24070
L71360 24070
" />
<path d="M71020 24240
L71220 23640
L71420 24240
" />
<path d="M71930 24240
L71580 24240
" />
<path d="M71760 24240
L71760 23640
L71700 23730
L71640 23780
L71580 23810
" />
<path d="M72380 23930
L72470 23960
L72500 23980
L72530 24040
L72530 24130
L72500 24180
L72470 24210
L72410 24240
L72180 24240
L72180 23640
L72380 23640
L72440 23670
L72470 23700
L72500 23760
L72500 23810
L72470 23870
L72440 23900
L72380 23930
L72180 23930
" />
<path d="M69360 25240
L69360 24640
L69710 25240
L69710 24640
" />
<path d="M69990 24930
L70190 24930
" />
<path d="M70280 25240
L69990 25240
L69990 24640
L70280 24640
" />
<path d="M70820 24640
L70530 24640
L70500 24930
L70530 24900
L70590 24870
L70730 24870
L70790 24900
L70820 24930
L70850 24980
L70850 25130
L70820 25180
L70790 25210
L70730 25240
L70590 25240
L70530 25210
L70500 25180
" />
<path d="M71390 24640
L71100 24640
L71070 24930
L71100 24900
L71160 24870
L71300 24870
L71360 24900
L71390 24930
L71420 24980
L71420 25130
L71390 25180
L71360 25210
L71300 25240
L71160 25240
L71100 25210
L71070 25180
" />
<path d="M71620 24640
L71990 24640
L71790 24870
L71870 24870
L71930 24900
L71960 24930
L71990 24980
L71990 25130
L71960 25180
L71930 25210
L71870 25240
L71700 25240
L71640 25210
L71620 25180
" />
<path d="M72210 24700
L72240 24670
L72300 24640
L72440 24640
L72500 24670
L72530 24700
L72560 24760
L72560 24810
L72530 24900
L72190 25240
L72560 25240
" />
<path d="M72780 25070
L73070 25070
" />
<path d="M72730 25240
L72930 24640
L73130 25240
" />
<path d="M73320 25240
L73320 24640
L73470 24640
L73550 24670
L73610 24730
L73640 24780
L73670 24900
L73670 24980
L73640 25100
L73610 25160
L73550 25210
L73470 25240
L73320 25240
" />
</g> 
</svg>
